<svg width="500" height="500" viewBox="0 0 500 500" fill="none" xmlns="http://www.w3.org/2000/svg">
<g clip-path="url(#clip0_43_202)">
<path d="M113.349 194.798C110.731 192.648 107.931 190.721 104.989 189.042L103.385 198.309" stroke="#2E2854" stroke-width="1.5" stroke-miterlimit="10" stroke-linecap="round" stroke-linejoin="round"/>
<path d="M104.989 189.042C111.629 202.298 126.628 215.973 141.146 218.978C155.664 221.983 172.024 216.49 180.513 204.335" stroke="#2E2854" stroke-width="1.5" stroke-miterlimit="10" stroke-linecap="round" stroke-linejoin="round" stroke-dasharray="5 7 5 7 5 7"/>
<path opacity="0.15" d="M131.008 171.956C131.176 166.638 131.111 161.312 130.815 155.999C130.577 151.733 127.327 148.258 123.083 147.766C111.237 146.394 99.147 146.329 87.065 147.081C82.563 147.362 78.997 150.995 78.855 155.503C78.675 161.177 78.714 166.907 79.029 172.976C79.258 177.383 82.765 180.898 87.167 181.21C98.972 182.045 110.931 181.874 123.295 180.388C127.602 179.87 130.871 176.292 131.008 171.956Z" fill="#2E2854"/>
<path d="M125.156 166.462C125.324 161.144 125.259 155.818 124.963 150.505C124.725 146.239 121.475 142.764 117.231 142.272C105.385 140.9 93.295 140.835 81.213 141.587C76.711 141.868 73.145 145.501 73.003 150.009C72.823 155.683 72.862 161.413 73.177 167.482C73.406 171.889 76.913 175.404 81.315 175.716C93.12 176.551 105.079 176.38 117.443 174.894C121.75 174.376 125.019 170.798 125.156 166.462Z" fill="white"/>
<path d="M84.945 152.742C94.877 152.411 104.822 152.475 114.75 152.933" stroke="#2E2854" stroke-width="1.5" stroke-miterlimit="10" stroke-linecap="round" stroke-linejoin="round"/>
<path d="M84.323 163.828C91.19 163.937 98.057 164.047 104.924 164.156" stroke="#2E2854" stroke-width="1.5" stroke-miterlimit="10" stroke-linecap="round" stroke-linejoin="round"/>
<path d="M125.156 166.462C125.324 161.144 125.259 155.818 124.963 150.505C124.725 146.239 121.475 142.764 117.231 142.272C105.385 140.9 93.295 140.835 81.213 141.587C76.711 141.868 73.145 145.501 73.003 150.009C72.823 155.683 72.862 161.413 73.177 167.482C73.406 171.889 76.913 175.404 81.315 175.716C93.12 176.551 105.079 176.38 117.443 174.894C121.75 174.376 125.019 170.798 125.156 166.462Z" stroke="#2E2854" stroke-width="1.5" stroke-miterlimit="10" stroke-linecap="round" stroke-linejoin="round"/>
<path d="M243.047 296.5C232.533 329.816 236.228 369.796 250.053 401.88" stroke="#2E2854" stroke-width="1.5" stroke-miterlimit="10" stroke-linecap="round" stroke-linejoin="round" stroke-dasharray="5 7 5 7 5 7"/>
<path d="M241.068 397.156C243.922 398.98 246.932 400.562 250.053 401.88L250.545 392.488" stroke="#2E2854" stroke-width="1.5" stroke-miterlimit="10" stroke-linecap="round" stroke-linejoin="round"/>
<path opacity="0.15" d="M292.6 441.579C292.768 436.261 292.703 430.935 292.407 425.622C292.169 421.356 288.919 417.881 284.675 417.389C272.829 416.017 260.739 415.952 248.657 416.704C244.155 416.985 240.589 420.618 240.447 425.126C240.267 430.8 240.306 436.53 240.621 442.599C240.85 447.006 244.357 450.521 248.759 450.833C260.564 451.668 272.523 451.497 284.887 450.011C289.194 449.493 292.463 445.915 292.6 441.579Z" fill="#2E2854"/>
<path d="M284.671 434.107C284.839 428.789 284.774 423.463 284.478 418.15C284.24 413.884 280.99 410.409 276.746 409.917C264.9 408.545 252.81 408.48 240.728 409.232C236.226 409.513 232.66 413.146 232.518 417.654C232.338 423.328 232.377 429.058 232.692 435.127C232.921 439.534 236.428 443.049 240.83 443.361C252.635 444.196 264.594 444.025 276.958 442.539C281.265 442.021 284.534 438.443 284.671 434.107Z" fill="white"/>
<path d="M284.671 434.107C284.839 428.789 284.774 423.463 284.478 418.15C284.24 413.884 280.99 410.409 276.746 409.917C264.9 408.545 252.81 408.48 240.728 409.232C236.226 409.513 232.66 413.146 232.518 417.654C232.338 423.328 232.377 429.058 232.692 435.127C232.921 439.534 236.428 443.049 240.83 443.361C252.635 444.196 264.594 444.025 276.958 442.539C281.265 442.021 284.534 438.443 284.671 434.107Z" stroke="#2E2854" stroke-width="1.5" stroke-miterlimit="10" stroke-linecap="round" stroke-linejoin="round"/>
<path d="M250.235 415.167H243.102V437.382H250.235V415.167Z" fill="#76C9BF"/>
<path d="M262.874 419.352H255.741V437.383H262.874V419.352Z" fill="#2E2854"/>
<path d="M275.514 423.536H268.381V437.382H275.514V423.536Z" fill="#2E2854"/>
<path d="M204.054 298.986C200.79 315.454 195.407 331.857 185.304 345.265C175.203 358.674 159.822 368.798 143.053 369.596C126.284 370.396 107.173 355.467 101.998 339.497" stroke="#2E2854" stroke-width="1.5" stroke-miterlimit="10" stroke-linecap="round" stroke-linejoin="round" stroke-dasharray="5 7 5 7 5 7"/>
<path d="M99.654 349.208C100.435 345.971 101.217 342.733 101.998 339.496L109.243 345.409" stroke="#2E2854" stroke-width="1.5" stroke-miterlimit="10" stroke-linecap="round" stroke-linejoin="round"/>
<path opacity="0.15" d="M129.569 335.868H77.07C70.233 335.868 64.69 330.325 64.69 323.488V270.989C64.69 264.152 70.233 258.609 77.07 258.609H129.569C136.406 258.609 141.949 264.152 141.949 270.989V323.488C141.949 330.326 136.406 335.868 129.569 335.868Z" fill="#2E2854"/>
<path d="M124.509 330.559H72.01C65.173 330.559 59.63 325.016 59.63 318.179V265.68C59.63 258.843 65.173 253.3 72.01 253.3H124.509C131.346 253.3 136.889 258.843 136.889 265.68V318.179C136.889 325.016 131.346 330.559 124.509 330.559Z" fill="white"/>
<path d="M124.509 330.559H72.01C65.173 330.559 59.63 325.016 59.63 318.179V265.68C59.63 258.843 65.173 253.3 72.01 253.3H124.509C131.346 253.3 136.889 258.843 136.889 265.68V318.179C136.889 325.016 131.346 330.559 124.509 330.559Z" stroke="#2E2854" stroke-width="1.5" stroke-miterlimit="10" stroke-linecap="round" stroke-linejoin="round"/>
<path d="M116.283 276.35C110.164 282.906 103.804 289.237 97.191 295.296C95.998 286.001 94.692 277.245 92.875 268.298C89.002 268.991 85.294 270.55 82.179 272.967C73.954 279.35 70.476 291.208 73.952 301.023C77.427 310.837 87.593 317.864 98.003 317.648C108.412 317.431 118.276 309.987 121.34 300.036C123.787 292.092 121.845 282.887 116.283 276.35Z" fill="#D24D84"/>
<path d="M95.437 261.582C97.253 270.529 98.559 279.285 99.753 288.58C106.365 282.521 112.725 276.19 118.845 269.634C117.441 267.984 115.817 266.495 113.962 265.25C108.591 261.643 101.79 260.445 95.437 261.582Z" fill="#2E2854"/>
<path d="M398.304 207.055C401.659 207.518 405.055 207.696 408.441 207.588L404.96 198.851" stroke="#2E2854" stroke-width="1.5" stroke-miterlimit="10" stroke-linecap="round" stroke-linejoin="round"/>
<path d="M408.441 207.588C395.726 197.144 378.215 188.429 361.815 187.083C345.416 185.737 328.218 190.864 316.451 202.366" stroke="#2E2854" stroke-width="1.5" stroke-miterlimit="10" stroke-linecap="round" stroke-linejoin="round" stroke-dasharray="5 7 5 7 5 7"/>
<path opacity="0.15" d="M449.784 263.71C441.715 263.941 433.633 263.744 425.584 263.119C421.279 262.784 417.882 259.353 417.575 255.047C416.96 246.403 416.801 237.926 417.025 229.497C417.145 225.004 420.734 221.397 425.22 221.127C433.748 220.612 442.357 220.83 451.081 222.046C455.255 222.628 458.402 226.176 458.502 230.389C458.704 238.815 458.567 247.22 458.2 255.468C457.997 259.991 454.31 263.579 449.784 263.71Z" fill="#2E2854"/>
<path d="M443.464 258.48C435.395 258.711 427.313 258.514 419.264 257.889C414.959 257.554 411.562 254.123 411.255 249.817C410.64 241.173 410.481 232.696 410.705 224.267C410.825 219.774 414.414 216.167 418.9 215.897C427.428 215.382 436.037 215.6 444.761 216.816C448.935 217.398 452.081 220.947 452.182 225.159C452.384 233.585 452.247 241.99 451.88 250.238C451.677 254.761 447.99 258.35 443.464 258.48Z" fill="white"/>
<path d="M443.464 258.48C435.395 258.711 427.313 258.514 419.264 257.889C414.959 257.554 411.562 254.123 411.255 249.817C410.64 241.173 410.481 232.696 410.705 224.267C410.825 219.774 414.414 216.167 418.9 215.897C427.428 215.382 436.037 215.6 444.761 216.816C448.935 217.398 452.081 220.947 452.182 225.159C452.384 233.585 452.247 241.99 451.88 250.238C451.677 254.761 447.99 258.35 443.464 258.48Z" stroke="#2E2854" stroke-width="1.5" stroke-miterlimit="10" stroke-linecap="round" stroke-linejoin="round"/>
<path d="M431.442 234.378L425.678 224.394L419.914 234.378H423.537V249.815H427.819V234.378H431.442Z" fill="#5C60F5"/>
<path d="M431.442 239.832L437.205 249.815L442.969 239.832H439.346V224.394H435.065V239.832H431.442Z" fill="#ABF37D"/>
<path opacity="0.15" d="M349.888 318.957C340.57 313.237 327.631 314.201 319.262 321.239C310.892 328.277 307.721 340.858 311.758 351.02C315.793 361.183 326.73 368.162 337.648 367.541C348.566 366.92 358.641 358.744 361.497 348.191C364.355 337.635 359.993 325.158 349.888 318.957Z" fill="#2E2854"/>
<path d="M346.873 318.721C337.555 313.001 324.616 313.965 316.247 321.003C307.877 328.041 304.706 340.622 308.743 350.784C312.778 360.947 323.715 367.926 334.633 367.305C345.551 366.684 355.626 358.508 358.482 347.955C361.339 337.4 356.978 324.923 346.873 318.721Z" fill="#F7A145"/>
<path d="M341.793 323.26C334.38 319.651 324.747 321.307 318.965 327.185C313.184 333.061 311.688 342.721 315.417 350.073C319.148 357.425 327.826 361.921 335.984 360.726C344.14 359.529 351.167 352.733 352.631 344.621C354.095 336.507 350.087 327.299 341.793 323.26Z" fill="#FF8330"/>
<path opacity="0.15" d="M358.482 347.956C360.064 342.112 359.424 335.683 356.831 330.052C358.974 340.536 356.931 353.772 345.479 360.625C333.716 367.664 323.547 364.623 317.612 362.056C322.502 365.644 328.568 367.65 334.632 367.305C345.55 366.685 355.626 358.509 358.482 347.956Z" fill="#2E2854"/>
<path d="M316.247 321.003C310.389 325.929 307.09 333.568 307.014 341.195C307.817 335.548 310.231 326.52 320.456 320.516C327.543 316.355 336.054 315.706 344.291 317.368C335.275 313.241 323.869 314.593 316.247 321.003Z" fill="#F5B878"/>
<path d="M341.793 323.26C334.38 319.651 324.747 321.307 318.965 327.185C313.184 333.061 311.688 342.721 315.417 350.073C319.148 357.425 327.826 361.921 335.984 360.726C344.14 359.529 351.167 352.733 352.631 344.621C354.095 336.507 350.087 327.299 341.793 323.26Z" stroke="#2E2854" stroke-width="1.5" stroke-miterlimit="10" stroke-linecap="round" stroke-linejoin="round"/>
<path d="M341.08 339.593C342.518 340.585 343.561 342.142 343.833 343.998L343.885 344.355C344.402 347.889 341.945 351.172 338.408 351.672L338.251 351.694L338.528 353.585L334.409 354.168L334.132 352.277L332.444 352.516L332.721 354.407L328.602 354.99L328.325 353.099L327.364 353.235L325.321 353.524L324.718 349.408L326.761 349.119L326.037 344.174L325.434 340.056L324.782 335.603L322.739 335.892L322.136 331.774L324.179 331.485L325.141 331.349L324.802 329.035L328.921 328.452L329.26 330.766L330.948 330.527L330.609 328.213L334.728 327.631L335.07 329.965C338.332 329.704 341.295 332.022 341.776 335.3L341.825 335.638C342.032 337.059 341.736 338.433 341.08 339.593ZM339.766 344.938L339.714 344.581C339.529 343.315 338.348 342.433 337.082 342.612L336.55 342.687L330.156 343.591L330.88 348.536L331.755 348.412L337.805 347.556C339.071 347.378 339.951 346.202 339.766 344.938ZM328.901 335.021L329.553 339.474L335.946 338.57C337.082 338.409 337.871 337.356 337.705 336.221L337.655 335.883C337.489 334.748 336.429 333.956 335.294 334.117L329.776 334.898L328.901 335.021Z" fill="white"/>
<path opacity="0.15" d="M385.184 130.745C379.487 121.413 367.524 116.388 356.871 118.85C346.216 121.312 337.671 131.074 336.644 141.961C335.616 152.848 342.183 164.037 352.189 168.449C362.195 172.86 374.886 170.161 382.229 162.061C389.574 153.959 391.363 140.863 385.184 130.745Z" fill="#2E2854"/>
<path d="M382.606 129.163C376.909 119.831 364.946 114.806 354.293 117.268C343.638 119.73 335.093 129.492 334.066 140.379C333.038 151.266 339.605 162.455 349.611 166.867C359.617 171.278 372.308 168.579 379.651 160.479C386.996 152.377 388.785 139.282 382.606 129.163Z" fill="#F7A145"/>
<path d="M376.018 130.895C371.057 124.309 361.725 121.404 353.902 124.01C346.081 126.615 340.355 134.538 340.333 142.781C340.313 151.025 345.997 158.976 353.806 161.622C361.614 164.265 370.963 161.408 375.956 154.849C380.95 148.288 381.568 138.264 376.018 130.895Z" fill="#FF8330"/>
<path opacity="0.15" d="M379.651 160.48C383.717 155.994 386.071 149.978 386.323 143.784C383.464 154.096 375.626 164.955 362.31 165.851C348.633 166.771 340.959 159.438 336.84 154.453C339.563 159.873 344.054 164.417 349.611 166.868C359.617 171.279 372.308 168.579 379.651 160.48Z" fill="#2E2854"/>
<path d="M354.293 117.268C346.836 118.991 340.424 124.295 336.887 131.052C340.17 126.388 346.426 119.446 358.262 118.748C366.466 118.265 374.341 121.557 380.921 126.784C374.77 119.008 363.996 115.026 354.293 117.268Z" fill="#F5B878"/>
<path d="M376.018 130.895C371.057 124.309 361.725 121.404 353.902 124.01C346.081 126.615 340.355 134.538 340.333 142.781C340.313 151.025 345.997 158.976 353.806 161.622C361.614 164.265 370.963 161.408 375.956 154.849C380.95 148.288 381.568 138.264 376.018 130.895Z" stroke="#2E2854" stroke-width="1.5" stroke-miterlimit="10" stroke-linecap="round" stroke-linejoin="round"/>
<path d="M367.955 145.117C368.784 146.655 369.006 148.515 368.404 150.292L368.288 150.634C367.142 154.017 363.46 155.823 360.082 154.66L359.933 154.609L359.319 156.419L355.386 155.065L355.999 153.255L354.387 152.701L353.774 154.51L349.841 153.156L350.455 151.346L349.537 151.031L347.586 150.358L348.921 146.419L350.872 147.09L352.476 142.357L353.812 138.415L355.256 134.154L353.305 133.481L354.641 129.539L356.592 130.212L357.51 130.527L358.261 128.312L362.194 129.667L361.443 131.882L363.055 132.436L363.806 130.221L367.739 131.576L366.982 133.809C370.005 135.06 371.591 138.472 370.528 141.61L370.418 141.934C369.956 143.293 369.067 144.383 367.955 145.117ZM364.354 149.281L364.47 148.938C364.881 147.726 364.23 146.404 363.021 145.988L362.513 145.813L356.408 143.712L354.804 148.445L355.64 148.732L361.417 150.721C362.626 151.137 363.944 150.491 364.354 149.281ZM359.187 135.507L357.743 139.77L363.848 141.871C364.932 142.244 366.115 141.665 366.483 140.579L366.593 140.255C366.961 139.169 366.377 137.982 365.293 137.608L360.023 135.794L359.187 135.507Z" fill="white"/>
<path d="M171.833 227.12C169.6 228.256 167.977 230.37 167.013 232.683C166.049 234.996 165.686 237.512 165.466 240.008C165.046 244.761 165.117 249.556 165.808 254.443C165.856 254.782 165.919 255.116 165.997 255.443L176.11 245.934L171.833 227.12Z" fill="#D24D84"/>
<path d="M171.833 227.12C169.6 228.256 167.977 230.37 167.013 232.683C166.34 234.297 165.97 236.011 165.727 237.747C166.019 238.158 166.365 238.527 166.756 238.832C168.84 240.46 171.673 240.699 174.317 240.637C174.512 240.632 174.705 240.616 174.9 240.608L171.833 227.12Z" fill="#F272A7"/>
<path d="M176.324 211.813C174.629 203.243 173.308 194.599 172.366 185.914C171.713 179.902 175.667 174.363 181.567 173.03C219.811 164.39 259.659 162.926 299.2 161.504C303.81 161.338 308.571 161.195 312.871 162.867C316.153 164.142 319.117 166.763 320.296 169.983C320.296 169.983 323.253 180.2 324.401 186.611C325.549 193.022 254.538 210.867 254.538 210.867L176.324 211.813Z" fill="#5558DD"/>
<path d="M320.296 169.983C319.116 166.763 316.153 164.142 312.871 162.867C308.571 161.195 303.81 161.338 299.2 161.504C259.659 162.926 219.811 164.39 181.567 173.03C177.27 174.001 174.016 177.207 172.811 181.197C215.87 173.086 259.635 168.723 303.448 168.2C305.668 168.173 307.986 168.176 309.87 169.54C310.661 170.112 311.271 170.933 311.496 171.858C312.772 177.101 312.297 180.065 312.297 180.065C312.297 180.065 307.748 193.12 315.956 191.043C319.924 190.039 321.554 183.351 322.117 176.653C321.149 172.932 320.296 169.983 320.296 169.983Z" fill="#8B8EFE"/>
<path d="M287.695 153.939C279.27 146.97 266.323 146.113 257.052 151.91C247.779 157.706 242.877 169.719 245.451 180.347C248.023 190.975 257.875 199.417 268.772 200.331C279.669 201.245 290.79 194.561 295.096 184.512C299.404 174.459 296.832 161.494 287.695 153.939Z" fill="#F7A145"/>
<path d="M282.03 157.722C275.195 153.11 265.426 153.401 258.877 158.411C252.33 163.42 249.496 172.775 252.159 180.577C254.824 188.379 262.787 194.046 271.032 194.005C279.275 193.962 287.185 188.217 289.77 180.39C292.356 172.561 289.677 162.882 282.03 157.722Z" fill="#FF8330"/>
<path opacity="0.15" d="M295.096 184.512C297.481 178.947 297.747 172.492 295.969 166.554C296.623 177.235 292.747 190.054 280.448 195.236C267.815 200.559 258.173 196.124 252.655 192.75C256.994 196.988 262.719 199.823 268.772 200.331C279.669 201.245 290.79 194.561 295.096 184.512Z" fill="#2E2854"/>
<path d="M257.052 151.909C250.562 155.966 246.226 163.068 245.082 170.609C246.668 165.13 250.323 156.53 261.287 152.017C268.887 148.889 277.405 149.439 285.328 152.238C276.979 146.888 265.496 146.63 257.052 151.909Z" fill="#F5B878"/>
<path d="M282.03 157.722C275.195 153.11 265.426 153.401 258.877 158.411C252.33 163.42 249.496 172.775 252.159 180.577C254.824 188.379 262.787 194.046 271.032 194.005C279.275 193.962 287.185 188.217 289.77 180.39C292.356 172.561 289.677 162.882 282.03 157.722Z" stroke="#2E2854" stroke-width="1.5" stroke-miterlimit="10" stroke-linecap="round" stroke-linejoin="round"/>
<path d="M279.036 173.796C280.321 174.98 281.136 176.667 281.145 178.543L281.147 178.904C281.164 182.475 278.272 185.382 274.699 185.382H274.541L274.55 187.293H270.39L270.381 185.382H268.676L268.685 187.293H264.525L264.516 185.382H263.545H261.482L261.462 181.222H263.525L263.501 176.225L263.481 172.063L263.459 167.563H261.396L261.376 163.401H263.439H264.41L264.399 161.062H268.559L268.57 163.401H270.275L270.264 161.062H274.424L274.435 163.42C277.701 163.618 280.311 166.328 280.327 169.642L280.329 169.984C280.334 171.419 279.849 172.739 279.036 173.796ZM276.987 178.904L276.985 178.543C276.979 177.264 275.933 176.225 274.654 176.225H274.117H267.66L267.684 181.222H268.568H274.678C275.958 181.222 276.993 180.182 276.987 178.904ZM267.617 167.563L267.639 172.063H274.096C275.243 172.063 276.172 171.131 276.167 169.984L276.165 169.642C276.159 168.495 275.221 167.563 274.074 167.563H268.501H267.617Z" fill="white"/>
<path d="M189.353 174.591C180.928 167.623 167.981 166.765 158.71 172.562C149.437 178.358 144.535 190.371 147.109 200.999C149.681 211.627 159.533 220.069 170.43 220.983C181.327 221.897 192.448 215.213 196.754 205.164C201.061 195.111 198.489 182.147 189.353 174.591Z" fill="#F7A145"/>
<path d="M183.687 178.375C176.852 173.763 167.083 174.054 160.534 179.064C153.987 184.073 151.153 193.428 153.816 201.23C156.481 209.032 164.444 214.699 172.689 214.658C180.932 214.615 188.842 208.87 191.428 201.043C194.013 193.214 191.334 183.535 183.687 178.375Z" fill="#FF8330"/>
<path opacity="0.15" d="M196.753 205.165C199.138 199.6 199.404 193.145 197.626 187.207C198.28 197.888 194.404 210.707 182.105 215.889C169.472 221.212 159.83 216.777 154.312 213.403C158.651 217.641 164.377 220.476 170.429 220.984C181.326 221.898 192.447 215.214 196.753 205.165Z" fill="#2E2854"/>
<path d="M158.709 172.562C152.219 176.619 147.883 183.721 146.739 191.262C148.325 185.783 151.98 177.183 162.944 172.67C170.544 169.542 179.062 170.092 186.985 172.891C178.637 167.54 167.154 167.282 158.709 172.562Z" fill="#F5B878"/>
<path d="M183.687 178.375C176.852 173.763 167.083 174.054 160.534 179.064C153.987 184.073 151.153 193.428 153.816 201.23C156.481 209.032 164.444 214.699 172.689 214.658C180.932 214.615 188.842 208.87 191.428 201.043C194.013 193.214 191.334 183.535 183.687 178.375Z" stroke="#2E2854" stroke-width="1.5" stroke-miterlimit="10" stroke-linecap="round" stroke-linejoin="round"/>
<path d="M180.693 194.447C181.978 195.631 182.793 197.318 182.802 199.194L182.804 199.555C182.821 203.126 179.929 206.033 176.356 206.033H176.198L176.207 207.944H172.047L172.038 206.033H170.333L170.342 207.944H166.182L166.173 206.033H165.202H163.139L163.119 201.873H165.182L165.158 196.876L165.138 192.714L165.116 188.214H163.053L163.033 184.052H165.096H166.067L166.056 181.713H170.216L170.227 184.052H171.932L171.921 181.713H176.081L176.092 184.071C179.358 184.269 181.968 186.979 181.984 190.292L181.986 190.634C181.992 192.071 181.506 193.39 180.693 194.447ZM178.644 199.555L178.642 199.194C178.636 197.915 177.59 196.876 176.311 196.876H175.774H169.317L169.341 201.873H170.225H176.335C177.615 201.873 178.65 200.833 178.644 199.555ZM169.275 188.214L169.297 192.714H175.754C176.901 192.714 177.83 191.782 177.825 190.635L177.823 190.293C177.817 189.146 176.879 188.214 175.732 188.214H170.159H169.275Z" fill="white"/>
<path d="M213.277 285.212C204.852 278.243 191.905 277.386 182.634 283.183C173.361 288.979 168.459 300.992 171.033 311.62C173.605 322.248 183.457 330.69 194.354 331.604C205.251 332.518 216.372 325.834 220.678 315.785C224.985 305.732 222.413 292.768 213.277 285.212Z" fill="#F7A145"/>
<path d="M207.611 288.996C200.776 284.384 191.007 284.675 184.459 289.686C177.912 294.695 175.077 304.05 177.741 311.852C180.406 319.654 188.369 325.321 196.614 325.28C204.857 325.237 212.767 319.492 215.352 311.665C217.937 303.835 215.258 294.156 207.611 288.996Z" fill="#FF8330"/>
<path opacity="0.15" d="M220.678 315.786C223.063 310.221 223.329 303.766 221.551 297.828C222.205 308.509 218.329 321.328 206.03 326.51C193.397 331.833 183.755 327.398 178.237 324.024C182.576 328.262 188.302 331.097 194.354 331.605C205.25 332.519 216.371 325.835 220.678 315.786Z" fill="#2E2854"/>
<path d="M182.634 283.184C176.144 287.241 171.808 294.343 170.664 301.884C172.25 296.405 175.905 287.805 186.869 283.292C194.469 280.164 202.987 280.714 210.91 283.513C202.561 278.162 191.078 277.904 182.634 283.184Z" fill="#F5B878"/>
<path d="M207.611 288.996C200.776 284.384 191.007 284.675 184.459 289.686C177.912 294.695 175.077 304.05 177.741 311.852C180.406 319.654 188.369 325.321 196.614 325.28C204.857 325.237 212.767 319.492 215.352 311.665C217.937 303.835 215.258 294.156 207.611 288.996Z" stroke="#2E2854" stroke-width="1.5" stroke-miterlimit="10" stroke-linecap="round" stroke-linejoin="round"/>
<path d="M204.618 305.068C205.903 306.252 206.718 307.939 206.727 309.815L206.729 310.176C206.747 313.747 203.854 316.654 200.281 316.654H200.123L200.132 318.565H195.972L195.963 316.654H194.258L194.267 318.565H190.107L190.098 316.654H189.127H187.064L187.044 312.494H189.107L189.083 307.497L189.063 303.335L189.041 298.835H186.978L186.958 294.673H189.021H189.992L189.981 292.334H194.141L194.152 294.673H195.857L195.846 292.334H200.006L200.017 294.692C203.283 294.89 205.893 297.6 205.909 300.913L205.91 301.255C205.916 302.692 205.43 304.011 204.618 305.068ZM202.568 310.176L202.566 309.815C202.56 308.536 201.514 307.497 200.235 307.497H199.698H193.241L193.265 312.494H194.149H200.259C201.539 312.494 202.574 311.454 202.568 310.176ZM193.199 298.835L193.221 303.335H199.678C200.825 303.335 201.754 302.403 201.749 301.256L201.747 300.914C201.741 299.767 200.803 298.835 199.656 298.835H194.083H193.199Z" fill="white"/>
<path opacity="0.15" d="M231.285 102.438C222.86 95.4697 209.913 94.6117 200.642 100.409C191.369 106.205 186.467 118.218 189.041 128.846C191.613 139.474 201.465 147.916 212.362 148.83C223.259 149.744 234.38 143.06 238.686 133.011C242.993 122.958 240.422 109.993 231.285 102.438Z" fill="#2E2854"/>
<path d="M229.911 97.9597C221.486 90.9917 208.539 90.1337 199.268 95.9307C189.995 101.727 185.093 113.74 187.667 124.368C190.239 134.996 200.091 143.438 210.988 144.352C221.885 145.266 233.006 138.582 237.312 128.533C241.619 118.48 239.048 105.516 229.911 97.9597Z" fill="#F7A145"/>
<path d="M224.245 101.743C217.41 97.1307 207.641 97.4217 201.093 102.433C194.546 107.442 191.711 116.797 194.375 124.599C197.04 132.401 205.003 138.068 213.248 138.027C221.491 137.984 229.401 132.239 231.986 124.412C234.571 116.582 231.892 106.903 224.245 101.743Z" fill="#FF8330"/>
<path opacity="0.15" d="M237.312 128.533C239.697 122.968 239.963 116.513 238.185 110.575C238.839 121.256 234.963 134.075 222.664 139.257C210.031 144.58 200.389 140.145 194.871 136.771C199.21 141.009 204.936 143.844 210.988 144.352C221.885 145.266 233.006 138.582 237.312 128.533Z" fill="#2E2854"/>
<path d="M199.268 95.9306C192.778 99.9876 188.442 107.09 187.298 114.631C188.884 109.152 192.539 100.552 203.503 96.0386C211.103 92.9106 219.621 93.4606 227.544 96.2596C219.195 90.9086 207.712 90.6506 199.268 95.9306Z" fill="#F5B878"/>
<path d="M224.245 101.743C217.41 97.1307 207.641 97.4217 201.093 102.433C194.546 107.442 191.711 116.797 194.375 124.599C197.04 132.401 205.003 138.068 213.248 138.027C221.491 137.984 229.401 132.239 231.986 124.412C234.571 116.582 231.892 106.903 224.245 101.743Z" stroke="#2E2854" stroke-width="1.5" stroke-miterlimit="10" stroke-linecap="round" stroke-linejoin="round"/>
<path d="M221.252 117.816C222.537 119 223.352 120.687 223.361 122.563L223.363 122.924C223.38 126.495 220.488 129.402 216.915 129.402H216.757L216.766 131.313H212.606L212.597 129.402H210.892L210.901 131.313H206.741L206.732 129.402H205.761H203.698L203.678 125.242H205.741L205.717 120.245L205.697 116.083L205.675 111.583H203.612L203.592 107.421H205.655H206.626L206.614 105.082H210.774L210.785 107.421H212.49L212.479 105.082H216.639L216.65 107.44C219.916 107.638 222.526 110.348 222.542 113.661L222.544 114.003C222.55 115.44 222.064 116.759 221.252 117.816ZM219.202 122.924L219.2 122.563C219.194 121.284 218.148 120.245 216.869 120.245H216.332H209.875L209.899 125.242H210.783H216.893C218.173 125.243 219.209 124.202 219.202 122.924ZM209.833 111.583L209.855 116.083H216.312C217.459 116.083 218.388 115.151 218.383 114.004L218.381 113.662C218.375 112.515 217.437 111.583 216.29 111.583H210.717H209.833Z" fill="white"/>
<path d="M169.632 217.937L168.31 207.529C167.475 201.411 171.154 195.556 177.043 193.696C218.636 180.557 263.623 186.248 305.744 177.304C308.351 176.751 311.49 175.579 311.595 172.801C311.607 172.479 311.572 172.163 311.496 171.857C311.496 171.857 314.077 175.023 316.451 187.977C316.451 187.977 277.286 204.69 241.484 209.24C205.681 213.79 169.632 217.937 169.632 217.937Z" fill="#8B8EFE"/>
<path d="M169.632 217.937C174.327 252.488 175.085 264.284 182.577 295.958C183.975 301.868 189.441 305.899 195.5 305.49C242.506 302.313 288.884 295.924 334.702 286.827C340.879 285.6 345.159 279.972 344.73 273.688C342.216 236.842 332.674 203.564 320.296 169.982C320.662 170.982 320.856 172.039 320.835 173.132C320.77 176.493 318.678 179.571 315.968 181.561C313.259 183.55 309.985 184.604 306.728 185.436C296.857 187.958 286.634 188.722 276.474 189.477C251.815 191.308 227.156 193.139 202.497 194.97C194.963 195.53 187.182 196.158 180.502 199.687C173.822 203.217 168.494 210.467 169.632 217.937Z" fill="#5C60F5"/>
<path opacity="0.15" d="M336.17 220.449C330.735 260.183 311.74 267.556 284.927 273.776L278.176 267.347C278.176 267.347 269.423 265.913 268.434 272.836C268.259 274.062 268.596 275.607 269.26 277.315C268.192 277.563 267.118 277.816 266.033 278.078C231.707 286.366 194.654 286.515 180.342 286.198C181.016 289.254 181.754 292.482 182.577 295.96C183.975 301.87 189.441 305.901 195.5 305.492C242.506 302.315 288.884 295.926 334.702 286.829C340.879 285.602 345.159 279.974 344.73 273.69C343.469 255.207 340.438 237.624 336.17 220.449Z" fill="#2E2854"/>
<path opacity="0.15" d="M176.919 269.238C181.555 269.195 187.4 268.832 193.418 267.658C206.935 265.021 210.891 261.592 212.605 254.405C214.319 247.218 209.968 242.669 209.968 242.669L173.191 244.845C174.352 253.535 175.438 261.037 176.919 269.238Z" fill="#2E2854"/>
<path d="M165.997 255.443C167.102 260.082 171.152 263.494 175.997 263.711C184.022 264.069 192.513 263.565 200.516 262.258C207.85 261.06 212.806 254.125 211.681 246.78C211.634 246.468 211.584 246.157 211.535 245.845C210.434 238.995 204.401 234.042 197.471 234.373C188.904 234.784 179.911 235.193 171.974 235.604L165.997 255.443Z" fill="#D24D84"/>
<path d="M197.471 234.373C188.904 234.784 179.911 235.193 171.974 235.604L170.529 240.4C171.768 240.622 173.063 240.667 174.317 240.637C180.877 240.484 187.315 238.889 193.847 238.265C199.062 237.767 204.551 237.966 209.065 239.933C206.448 236.356 202.168 234.148 197.471 234.373Z" fill="#F272A7"/>
<path d="M200.492 246.121C202.486 248.163 202.485 251.813 200.49 253.855C198.495 255.897 194.846 255.982 192.758 254.037C190.67 252.091 190.497 248.445 192.393 246.311C194.289 244.178 198.132 243.703 200.492 246.121Z" fill="#2E2854"/>
<path d="M399.374 453.185C397.21 451.699 393.925 452.185 392.299 454.246C390.673 456.307 390.979 459.634 392.967 461.346C394.957 463.06 398.31 462.86 400.065 460.909C401.821 458.955 402.099 455.056 399.374 453.185Z" fill="#DDDDE1"/>
<path d="M49.85 397.649C47.685 396.163 44.401 396.649 42.775 398.71C41.149 400.771 41.455 404.098 43.443 405.81C45.433 407.524 48.786 407.324 50.541 405.373C52.297 403.419 52.575 399.52 49.85 397.649Z" fill="#DDDDE1"/>
<path d="M466.715 118.631C464.551 117.145 461.266 117.63 459.64 119.692C458.014 121.753 458.32 125.08 460.308 126.792C462.298 128.506 465.651 128.307 467.406 126.355C469.162 124.4 469.44 120.502 466.715 118.631Z" fill="#DDDDE1"/>
<path d="M69.113 60.4798C66.308 57.8278 61.709 57.3138 58.388 59.2808C55.067 61.2468 53.308 65.5268 54.285 69.2608C55.263 72.9958 58.893 75.8648 62.752 75.9528C66.611 76.0408 70.369 73.3398 71.515 69.6538C72.412 66.7678 71.792 63.0118 69.113 60.4798Z" fill="#DDDDE1"/>
<path d="M150.15 243.535C150.096 246.3 150.043 249.067 149.989 251.832" stroke="#5C60F5" stroke-width="1.5" stroke-miterlimit="10" stroke-linecap="round" stroke-linejoin="round"/>
<path d="M145.797 247.561L154.058 247.37" stroke="#5C60F5" stroke-width="1.5" stroke-miterlimit="10" stroke-linecap="round" stroke-linejoin="round"/>
<path d="M259.529 341.621C259.475 344.386 259.421 347.153 259.369 349.918" stroke="#2E2854" stroke-width="1.5" stroke-miterlimit="10" stroke-linecap="round" stroke-linejoin="round"/>
<path d="M255.177 345.647L263.438 345.455" stroke="#2E2854" stroke-width="1.5" stroke-miterlimit="10" stroke-linecap="round" stroke-linejoin="round"/>
<path d="M161.598 155.859C161.544 158.624 161.491 161.391 161.438 164.156" stroke="#2E2854" stroke-width="1.5" stroke-miterlimit="10" stroke-linecap="round" stroke-linejoin="round"/>
<path d="M157.246 159.884L165.507 159.693" stroke="#2E2854" stroke-width="1.5" stroke-miterlimit="10" stroke-linecap="round" stroke-linejoin="round"/>
<path d="M368.945 98.981C368.891 101.746 368.838 104.513 368.785 107.278" stroke="#5C60F5" stroke-width="1.5" stroke-miterlimit="10" stroke-linecap="round" stroke-linejoin="round"/>
<path d="M364.593 103.006L372.854 102.815" stroke="#5C60F5" stroke-width="1.5" stroke-miterlimit="10" stroke-linecap="round" stroke-linejoin="round"/>
<path d="M411.022 72.2438C409.491 72.0398 407.899 73.1588 407.573 74.6668C407.247 76.1758 408.234 77.8518 409.713 78.2988C411.191 78.7448 412.941 77.8938 413.504 76.4558C414.066 75.0178 413.525 72.5798 411.022 72.2438Z" fill="#DDDDE1"/>
<path d="M37.9 109.793C36.369 109.589 34.777 110.708 34.451 112.216C34.125 113.725 35.112 115.401 36.591 115.848C38.069 116.294 39.819 115.443 40.382 114.005C40.945 112.567 40.404 110.128 37.9 109.793Z" fill="#DDDDE1"/>
<path d="M78.509 427.384C76.978 427.18 75.386 428.299 75.06 429.807C74.734 431.316 75.721 432.992 77.2 433.439C78.678 433.885 80.428 433.034 80.991 431.596C81.553 430.158 81.013 427.72 78.509 427.384Z" fill="#DDDDE1"/>
<path d="M450.583 85.9615C449.052 85.7575 447.46 86.8765 447.134 88.3845C446.808 89.8935 447.795 91.5695 449.274 92.0165C450.752 92.4625 452.502 91.6115 453.065 90.1735C453.627 88.7345 453.087 86.2965 450.583 85.9615Z" fill="#DDDDE1"/>
<path d="M167.175 420.101C165.644 419.897 164.052 421.016 163.726 422.524C163.4 424.033 164.387 425.709 165.866 426.156C167.344 426.601 169.094 425.751 169.657 424.313C170.22 422.875 169.679 420.436 167.175 420.101Z" fill="#5C60F5"/>
<path d="M420.327 181.734C418.796 181.53 417.204 182.649 416.878 184.157C416.552 185.666 417.539 187.342 419.018 187.789C420.496 188.235 422.246 187.384 422.809 185.947C423.372 184.507 422.831 182.069 420.327 181.734Z" fill="#5C60F5"/>
<path d="M341.956 410.361C340.425 410.157 338.833 411.276 338.507 412.784C338.181 414.293 339.168 415.969 340.647 416.416C342.125 416.862 343.875 416.011 344.438 414.574C345 413.135 344.46 410.696 341.956 410.361Z" fill="#5C60F5"/>
<path d="M169.86 133.053C169.806 135.818 169.752 138.585 169.699 141.35" stroke="#5C60F5" stroke-width="1.5" stroke-miterlimit="10" stroke-linecap="round" stroke-linejoin="round"/>
<path d="M165.507 137.078L173.769 136.887" stroke="#5C60F5" stroke-width="1.5" stroke-miterlimit="10" stroke-linecap="round" stroke-linejoin="round"/>
<path d="M308.87 234.173C308.816 236.938 308.762 239.705 308.71 242.47" stroke="white" stroke-width="1.5" stroke-miterlimit="10" stroke-linecap="round" stroke-linejoin="round"/>
<path d="M304.518 238.198L312.779 238.007" stroke="white" stroke-width="1.5" stroke-miterlimit="10" stroke-linecap="round" stroke-linejoin="round"/>
<path d="M222.693 186.152C222.639 188.917 222.585 191.684 222.532 194.449" stroke="white" stroke-width="1.5" stroke-miterlimit="10" stroke-linecap="round" stroke-linejoin="round"/>
<path d="M218.34 190.178L226.601 189.986" stroke="white" stroke-width="1.5" stroke-miterlimit="10" stroke-linecap="round" stroke-linejoin="round"/>
<path d="M235.403 67.022C235.349 69.787 235.296 72.554 235.243 75.319" stroke="#5C60F5" stroke-width="1.5" stroke-miterlimit="10" stroke-linecap="round" stroke-linejoin="round"/>
<path d="M231.051 71.048L239.312 70.856" stroke="#5C60F5" stroke-width="1.5" stroke-miterlimit="10" stroke-linecap="round" stroke-linejoin="round"/>
<path d="M208.407 352.026C208.353 354.792 208.3 357.558 208.247 360.323" stroke="#5C60F5" stroke-width="1.5" stroke-miterlimit="10" stroke-linecap="round" stroke-linejoin="round"/>
<path d="M204.054 356.051L212.315 355.86" stroke="#5C60F5" stroke-width="1.5" stroke-miterlimit="10" stroke-linecap="round" stroke-linejoin="round"/>
<path d="M292.343 134.598C292.289 137.363 292.235 140.13 292.183 142.895" stroke="#2E2854" stroke-width="1.5" stroke-miterlimit="10" stroke-linecap="round" stroke-linejoin="round"/>
<path d="M287.991 138.623L296.252 138.432" stroke="#2E2854" stroke-width="1.5" stroke-miterlimit="10" stroke-linecap="round" stroke-linejoin="round"/>
<path d="M119.358 391.45C119.358 389.951 118.143 388.736 116.644 388.736C115.145 388.736 113.93 389.951 113.93 391.45C113.93 392.949 115.145 394.164 116.644 394.164C118.143 394.164 119.358 392.949 119.358 391.45Z" stroke="#2E2854" stroke-width="1.5" stroke-miterlimit="10" stroke-linecap="round" stroke-linejoin="round"/>
<path d="M56.081 222.5C57.5799 222.5 58.795 221.285 58.795 219.786C58.795 218.287 57.5799 217.072 56.081 217.072C54.5821 217.072 53.367 218.287 53.367 219.786C53.367 221.285 54.5821 222.5 56.081 222.5Z" stroke="#2E2854" stroke-width="1.5" stroke-miterlimit="10" stroke-linecap="round" stroke-linejoin="round"/>
<path d="M430.47 426.448C431.969 426.448 433.184 425.232 433.184 423.734C433.184 422.235 431.969 421.02 430.47 421.02C428.971 421.02 427.756 422.235 427.756 423.734C427.756 425.232 428.971 426.448 430.47 426.448Z" stroke="#2E2854" stroke-width="1.5" stroke-miterlimit="10" stroke-linecap="round" stroke-linejoin="round"/>
<path d="M292.691 69.7356C294.19 69.7356 295.405 68.5205 295.405 67.0216C295.405 65.5227 294.19 64.3076 292.691 64.3076C291.192 64.3076 289.977 65.5227 289.977 67.0216C289.977 68.5205 291.192 69.7356 292.691 69.7356Z" stroke="#2E2854" stroke-width="1.5" stroke-miterlimit="10" stroke-linecap="round" stroke-linejoin="round"/>
</g>
<defs>
<clipPath id="clip0_43_202">
<rect width="500" height="500" fill="white"/>
</clipPath>
</defs>
</svg>
