<svg width="24" height="24" viewBox="0 0 24 24" fill="none" xmlns="http://www.w3.org/2000/svg">
<g clip-path="url(#clip0_47_8)">
<path d="M2.45455 19.9999H5.84848V11.7575L1 8.12109V18.5453C1 19.3502 1.65212 19.9999 2.45455 19.9999Z" fill="#4285F4"/>
<path d="M17.4848 19.9999H20.8788C21.6836 19.9999 22.3333 19.3478 22.3333 18.5453V8.12109L17.4848 11.7575" fill="#34A853"/>
<path d="M17.4848 5.45477V11.7578L22.3333 8.12143V6.18204C22.3333 4.38325 20.28 3.3578 18.8424 4.43658" fill="#FBBC04"/>
<path d="M5.84846 11.7576V5.45459L11.6666 9.81823L17.4848 5.45459V11.7576L11.6666 16.1213" fill="#EA4335"/>
<path d="M1 6.18204V8.12143L5.84848 11.7578V5.45477L4.49091 4.43658C3.05091 3.3578 1 4.38325 1 6.18204Z" fill="#C5221F"/>
</g>
<defs>
<clipPath id="clip0_47_8">
<rect width="21.3333" height="16" fill="white" transform="translate(1 4)"/>
</clipPath>
</defs>
</svg>
