<svg width="24" height="24" viewBox="0 0 24 24" fill="none" xmlns="http://www.w3.org/2000/svg">
<path d="M12.0057 1.1665C7.48199 1.1665 6.15899 1.17117 5.90182 1.1925C4.97349 1.26967 4.39582 1.41584 3.76649 1.72917C3.28149 1.97 2.89899 2.24917 2.52149 2.6405C1.83399 3.35417 1.41732 4.23217 1.26649 5.27584C1.19316 5.7825 1.17182 5.88584 1.16749 8.47384C1.16582 9.3365 1.16749 10.4718 1.16749 11.9947C1.16749 16.5147 1.17249 17.8363 1.19416 18.093C1.26916 18.9963 1.41082 19.5647 1.71082 20.1863C2.28416 21.3763 3.37916 22.2697 4.66916 22.603C5.11582 22.718 5.60916 22.7813 6.24249 22.8113C6.51082 22.823 9.24582 22.8313 11.9825 22.8313C14.7192 22.8313 17.4558 22.828 17.7175 22.8147C18.4508 22.7802 18.8767 22.723 19.3475 22.6013C20.6458 22.2663 21.7208 21.3863 22.3058 20.1797C22.6 19.573 22.7492 18.983 22.8167 18.1268C22.8313 17.9402 22.8375 14.964 22.8375 11.9918C22.8375 9.01917 22.8308 6.0485 22.8162 5.86184C22.7478 4.99184 22.5987 4.40684 22.295 3.7885C22.0458 3.28234 21.7692 2.90434 21.3675 2.51784C20.6507 1.83317 19.774 1.4165 18.7293 1.26584C18.2232 1.19267 18.1223 1.171 15.5323 1.1665H12.0057Z" fill="url(#paint0_radial_47_36)"/>
<path d="M12.0057 1.1665C7.48199 1.1665 6.15899 1.17117 5.90182 1.1925C4.97349 1.26967 4.39582 1.41584 3.76649 1.72917C3.28149 1.97 2.89899 2.24917 2.52149 2.6405C1.83399 3.35417 1.41732 4.23217 1.26649 5.27584C1.19316 5.7825 1.17182 5.88584 1.16749 8.47384C1.16582 9.3365 1.16749 10.4718 1.16749 11.9947C1.16749 16.5147 1.17249 17.8363 1.19416 18.093C1.26916 18.9963 1.41082 19.5647 1.71082 20.1863C2.28416 21.3763 3.37916 22.2697 4.66916 22.603C5.11582 22.718 5.60916 22.7813 6.24249 22.8113C6.51082 22.823 9.24582 22.8313 11.9825 22.8313C14.7192 22.8313 17.4558 22.828 17.7175 22.8147C18.4508 22.7802 18.8767 22.723 19.3475 22.6013C20.6458 22.2663 21.7208 21.3863 22.3058 20.1797C22.6 19.573 22.7492 18.983 22.8167 18.1268C22.8313 17.9402 22.8375 14.964 22.8375 11.9918C22.8375 9.01917 22.8308 6.0485 22.8162 5.86184C22.7478 4.99184 22.5987 4.40684 22.295 3.7885C22.0458 3.28234 21.7692 2.90434 21.3675 2.51784C20.6507 1.83317 19.774 1.4165 18.7293 1.26584C18.2232 1.19267 18.1223 1.171 15.5323 1.1665H12.0057Z" fill="url(#paint1_radial_47_36)"/>
<path d="M12.0006 4C9.82797 4 9.5553 4.0095 8.70197 4.04833C7.8503 4.08733 7.26897 4.22217 6.7603 4.42C6.23414 4.62433 5.7878 4.89767 5.34314 5.3425C4.89814 5.78717 4.6248 6.2335 4.4198 6.7595C4.22147 7.26833 4.08647 7.84983 4.04814 8.70117C4.00997 9.5545 3.99997 9.82733 3.99997 12C3.99997 14.1727 4.00964 14.4445 4.0483 15.2978C4.08747 16.1495 4.2223 16.7308 4.41997 17.2395C4.62447 17.7657 4.8978 18.212 5.34264 18.6567C5.78714 19.1017 6.23347 19.3757 6.7593 19.58C7.2683 19.7778 7.8498 19.9127 8.7013 19.9517C9.55464 19.9905 9.82714 20 11.9996 20C14.1725 20 14.4443 19.9905 15.2976 19.9517C16.1493 19.9127 16.7313 19.7778 17.2403 19.58C17.7663 19.3757 18.212 19.1017 18.6565 18.6567C19.1015 18.212 19.3748 17.7657 19.5798 17.2397C19.7765 16.7308 19.9115 16.1493 19.9515 15.298C19.9898 14.4447 19.9998 14.1727 19.9998 12C19.9998 9.82733 19.9898 9.55467 19.9515 8.70133C19.9115 7.84967 19.7765 7.26833 19.5798 6.75967C19.3748 6.2335 19.1015 5.78717 18.6565 5.3425C18.2115 4.8975 17.7665 4.62417 17.2398 4.42C16.7298 4.22217 16.1481 4.08733 15.2965 4.04833C14.4431 4.0095 14.1715 4 11.9981 4H12.0006ZM11.283 5.44167C11.496 5.44133 11.7336 5.44167 12.0006 5.44167C14.1366 5.44167 14.3898 5.44933 15.2333 5.48767C16.0133 5.52333 16.4366 5.65367 16.7186 5.76317C17.092 5.90817 17.3581 6.0815 17.638 6.3615C17.918 6.6415 18.0913 6.90817 18.2366 7.2815C18.3461 7.56317 18.4766 7.9865 18.5121 8.7665C18.5505 9.60983 18.5588 9.86317 18.5588 11.9982C18.5588 14.1332 18.5505 14.3865 18.5121 15.2298C18.4765 16.0098 18.3461 16.4332 18.2366 16.7148C18.0916 17.0882 17.918 17.354 17.638 17.6338C17.358 17.9138 17.0921 18.0872 16.7186 18.2322C16.437 18.3422 16.0133 18.4722 15.2333 18.5078C14.39 18.5462 14.1366 18.5545 12.0006 18.5545C9.86447 18.5545 9.6113 18.5462 8.76797 18.5078C7.98797 18.4718 7.56464 18.3415 7.28247 18.232C6.90914 18.087 6.64247 17.9137 6.36247 17.6337C6.08247 17.3537 5.90914 17.0877 5.7638 16.7142C5.6543 16.4325 5.5238 16.0092 5.4883 15.2292C5.44997 14.3858 5.4423 14.1325 5.4423 11.9962C5.4423 9.85983 5.44997 9.60783 5.4883 8.7645C5.52397 7.9845 5.6543 7.56117 5.7638 7.27917C5.9088 6.90583 6.08247 6.63917 6.36247 6.35917C6.64247 6.07917 6.90914 5.90583 7.28247 5.7605C7.56447 5.6505 7.98797 5.5205 8.76797 5.48467C9.50597 5.45133 9.79197 5.44133 11.283 5.43967V5.44167ZM16.271 6.77C15.741 6.77 15.311 7.1995 15.311 7.72967C15.311 8.25967 15.741 8.68967 16.271 8.68967C16.801 8.68967 17.231 8.25967 17.231 7.72967C17.231 7.19967 16.801 6.76967 16.271 6.76967V6.77ZM12.0006 7.89167C9.7318 7.89167 7.8923 9.73117 7.8923 12C7.8923 14.2688 9.7318 16.1075 12.0006 16.1075C14.2695 16.1075 16.1083 14.2688 16.1083 12C16.1083 9.73117 14.2695 7.89167 12.0006 7.89167ZM12.0006 9.33333C13.4733 9.33333 14.6673 10.5272 14.6673 12C14.6673 13.4727 13.4733 14.6667 12.0006 14.6667C10.5278 14.6667 9.33397 13.4727 9.33397 12C9.33397 10.5272 10.5278 9.33333 12.0006 9.33333Z" fill="white"/>
<defs>
<radialGradient id="paint0_radial_47_36" cx="0" cy="0" r="1" gradientUnits="userSpaceOnUse" gradientTransform="translate(6.92307 24.5) rotate(-90) scale(21.4714 19.9756)">
<stop stop-color="#FFDD55"/>
<stop offset="0.1" stop-color="#FFDD55"/>
<stop offset="0.5" stop-color="#FF543E"/>
<stop offset="1" stop-color="#C837AB"/>
</radialGradient>
<radialGradient id="paint1_radial_47_36" cx="0" cy="0" r="1" gradientUnits="userSpaceOnUse" gradientTransform="translate(-2.46322 2.7272) rotate(78.6776) scale(9.59793 39.573)">
<stop stop-color="#3771C8"/>
<stop offset="0.128" stop-color="#3771C8"/>
<stop offset="1" stop-color="#6600FF" stop-opacity="0"/>
</radialGradient>
</defs>
</svg>
