<svg width="137" height="36" viewBox="0 0 137 36" fill="none" xmlns="http://www.w3.org/2000/svg">
<path d="M15.6582 0.5V0.5C19.7277 0.5 23.0266 3.79895 23.0266 7.86842V15.2368V15.2368C18.9572 15.2368 15.6582 11.9379 15.6582 7.86842V0.5Z" fill="#5C60F5"/>
<path d="M23.0263 23.9869C23.0263 30.3454 17.8717 35.5 11.5132 35.5C5.15462 35.5 0 30.3454 0 23.9869C0 17.6283 5.15462 12.4737 11.5132 12.4737C17.8717 12.4737 23.0263 17.6283 23.0263 23.9869ZM6.03362 23.9869C6.03362 27.0131 8.4869 29.4664 11.5132 29.4664C14.5394 29.4664 16.9927 27.0131 16.9927 23.9869C16.9927 20.9606 14.5394 18.5073 11.5132 18.5073C8.4869 18.5073 6.03362 20.9606 6.03362 23.9869Z" fill="#5C60F5"/>
<path d="M30.4482 24.8867C29.9535 24.3268 29.5889 23.6367 29.3545 22.8164C29.1201 21.9961 29.0029 21.1693 29.0029 20.3359C29.0029 19.3203 29.1396 18.4674 29.4131 17.7773C29.6995 17.0872 30.0641 16.5273 30.5068 16.0977C30.9495 15.668 31.4378 15.362 31.9717 15.1797C32.5186 14.9844 33.0524 14.8867 33.5732 14.8867C34.2113 14.8867 34.7907 14.9974 35.3115 15.2188C35.8454 15.4401 36.2425 15.7331 36.5029 16.0977V10.8242H38.8857V26H36.6396C36.6136 25.7786 36.5876 25.5573 36.5615 25.3359C36.5485 25.1016 36.529 24.8867 36.5029 24.6914C36.4639 24.8607 36.3467 25.0299 36.1514 25.1992C35.9691 25.3685 35.7282 25.5247 35.4287 25.668C35.1423 25.7982 34.8167 25.9023 34.4521 25.9805C34.0876 26.0586 33.71 26.0977 33.3193 26.0977C32.7985 26.0977 32.2842 26.0065 31.7764 25.8242C31.2816 25.6419 30.8389 25.3294 30.4482 24.8867ZM31.5029 20.5117C31.5029 21.0326 31.568 21.5208 31.6982 21.9766C31.8285 22.4193 32.0042 22.8099 32.2256 23.1484C32.4469 23.487 32.7139 23.7539 33.0264 23.9492C33.3519 24.1445 33.7035 24.2422 34.0811 24.2422C34.4847 24.2422 34.8428 24.1445 35.1553 23.9492C35.4808 23.7409 35.7542 23.4674 35.9756 23.1289C36.1969 22.7904 36.3662 22.3932 36.4834 21.9375C36.6006 21.4818 36.6592 20.9935 36.6592 20.4727C36.6592 19.9518 36.5941 19.4635 36.4639 19.0078C36.3467 18.5521 36.1709 18.1549 35.9365 17.8164C35.7152 17.4779 35.4417 17.2109 35.1162 17.0156C34.8037 16.8073 34.4456 16.7031 34.042 16.7031C33.6383 16.7031 33.2803 16.8073 32.9678 17.0156C32.6553 17.2109 32.3883 17.4844 32.167 17.8359C31.9587 18.1875 31.7959 18.5911 31.6787 19.0469C31.5615 19.5026 31.5029 19.9909 31.5029 20.5117ZM50.4873 22.0547C50.4873 22.5755 50.3766 23.0833 50.1553 23.5781C49.9469 24.0599 49.6475 24.4896 49.2568 24.8672C48.8662 25.2318 48.3844 25.5247 47.8115 25.7461C47.2386 25.9674 46.5876 26.0781 45.8584 26.0781C45.5459 26.0781 45.2204 26.0586 44.8818 26.0195C44.5563 25.9935 44.2243 25.9414 43.8857 25.8633C43.5472 25.7852 43.2217 25.681 42.9092 25.5508C42.6097 25.4076 42.3493 25.2383 42.1279 25.043L42.5381 23.3633C42.7204 23.4674 42.9482 23.5716 43.2217 23.6758C43.5081 23.7669 43.8011 23.8581 44.1006 23.9492C44.4001 24.0273 44.6995 24.0924 44.999 24.1445C45.2985 24.1966 45.5785 24.2227 45.8389 24.2227C46.6331 24.2227 47.2386 24.0404 47.6553 23.6758C48.085 23.2982 48.2998 22.7448 48.2998 22.0156C48.2998 21.5729 48.1501 21.1953 47.8506 20.8828C47.5511 20.5703 47.1735 20.2904 46.7178 20.043C46.2751 19.7826 45.7933 19.5286 45.2725 19.2812C44.7516 19.0208 44.2633 18.7214 43.8076 18.3828C43.3519 18.0312 42.9743 17.6211 42.6748 17.1523C42.3753 16.6836 42.2256 16.0977 42.2256 15.3945C42.2256 14.7565 42.3428 14.1901 42.5771 13.6953C42.8115 13.2005 43.124 12.7839 43.5146 12.4453C43.9183 12.0938 44.3805 11.8268 44.9014 11.6445C45.4352 11.4622 45.9951 11.3711 46.5811 11.3711C47.18 11.3711 47.7855 11.4297 48.3975 11.5469C49.0094 11.651 49.5042 11.8268 49.8818 12.0742C49.8037 12.2435 49.7126 12.4323 49.6084 12.6406C49.5042 12.8359 49.4066 13.0247 49.3154 13.207C49.2243 13.3763 49.1462 13.5195 49.0811 13.6367C49.016 13.7539 48.9769 13.819 48.9639 13.832C48.8857 13.793 48.7946 13.7409 48.6904 13.6758C48.5993 13.6107 48.4626 13.5456 48.2803 13.4805C48.098 13.4154 47.8571 13.3698 47.5576 13.3438C47.2581 13.3177 46.874 13.3242 46.4053 13.3633C46.1449 13.3893 45.8975 13.4674 45.6631 13.5977C45.4287 13.7148 45.2204 13.8646 45.0381 14.0469C44.8558 14.2292 44.7126 14.4375 44.6084 14.6719C44.5042 14.8932 44.4521 15.1081 44.4521 15.3164C44.4521 15.8372 44.6019 16.2604 44.9014 16.5859C45.2008 16.8984 45.5719 17.1784 46.0146 17.4258C46.4574 17.6602 46.9391 17.8945 47.46 18.1289C47.9808 18.3503 48.4626 18.6237 48.9053 18.9492C49.361 19.2747 49.7386 19.6849 50.0381 20.1797C50.3376 20.6615 50.4873 21.2865 50.4873 22.0547ZM59.0225 19.3008V21.2734H52.8115V19.3008H59.0225ZM64.7061 22.6406C64.7061 23.0833 64.7646 23.4349 64.8818 23.6953C64.999 23.9427 65.1618 24.1315 65.3701 24.2617C65.5785 24.3789 65.8128 24.457 66.0732 24.4961C66.3467 24.5352 66.6396 24.5547 66.9521 24.5547V26C66.7829 26.026 66.6071 26.0456 66.4248 26.0586C66.2816 26.0716 66.1123 26.0781 65.917 26.0781C65.7217 26.0911 65.5264 26.0977 65.3311 26.0977C65.1357 26.0977 64.9404 26.0911 64.7451 26.0781C64.5498 26.0651 64.374 26.0456 64.2178 26.0195C63.7751 25.9284 63.43 25.7331 63.1826 25.4336C62.9352 25.1341 62.7464 24.8021 62.6162 24.4375C62.486 24.0599 62.4014 23.6953 62.3623 23.3438C62.3363 22.9922 62.3232 22.7188 62.3232 22.5234V22.2891V10.8242H64.7061V22.6406ZM71.8154 26H69.4326V14.9844H71.8154V26ZM72.0303 11.4688C72.0303 11.8594 71.8936 12.1914 71.6201 12.4648C71.3467 12.7253 71.0146 12.8555 70.624 12.8555C70.2334 12.8555 69.9014 12.7188 69.6279 12.4453C69.3675 12.1719 69.2373 11.8464 69.2373 11.4688C69.2373 11.0781 69.374 10.7461 69.6475 10.4727C69.9209 10.1992 70.2464 10.0625 70.624 10.0625C71.0146 10.0625 71.3467 10.1992 71.6201 10.4727C71.8936 10.7461 72.0303 11.0781 72.0303 11.4688ZM84.2568 26H81.874V20.0039C81.874 19.5612 81.8545 19.138 81.8154 18.7344C81.7764 18.3307 81.6852 17.9727 81.542 17.6602C81.3988 17.3477 81.2035 17.1068 80.9561 16.9375C80.7087 16.7552 80.3636 16.6641 79.9209 16.6641C79.7777 16.6641 79.5889 16.6836 79.3545 16.7227C79.1331 16.7617 78.8988 16.8203 78.6514 16.8984C78.417 16.9766 78.1891 17.0742 77.9678 17.1914C77.7594 17.3086 77.6032 17.4453 77.499 17.6016V17.7188V17.7578V22.0938V22.1328V26H75.1357V14.9844H77.2451L77.499 16.0977C77.6553 15.9544 77.8506 15.8112 78.085 15.668C78.3324 15.5117 78.5993 15.375 78.8857 15.2578C79.1722 15.1406 79.4652 15.0495 79.7646 14.9844C80.0641 14.9062 80.3571 14.8672 80.6436 14.8672C81.2295 14.8672 81.7243 14.9909 82.1279 15.2383C82.5316 15.4857 82.9352 15.8047 83.3389 16.1953C83.5602 16.4167 83.7295 16.6771 83.8467 16.9766C83.9769 17.263 84.068 17.569 84.1201 17.8945C84.1852 18.207 84.2243 18.526 84.2373 18.8516C84.2503 19.1771 84.2568 19.4961 84.2568 19.8086V25.6094V26ZM93.9053 26L89.9014 20.7266V26H87.5186V10.8242H89.9014V20.2383L93.4365 14.9844H96.0928L92.2256 20.4727L96.6006 26H93.9053Z" fill="black"/>
</svg>
