<svg width="100" height="38" viewBox="0 0 100 38" fill="none" xmlns="http://www.w3.org/2000/svg">
<path d="M17 0V0C21.4183 0 25 3.58172 25 8V16V16C20.5817 16 17 12.4183 17 8V0Z" fill="white"/>
<path d="M25 25.5C25 32.4036 19.4036 38 12.5 38C5.59644 38 0 32.4036 0 25.5C0 18.5964 5.59644 13 12.5 13C19.4036 13 25 18.5964 25 25.5ZM6.55079 25.5C6.55079 28.7857 9.21434 31.4492 12.5 31.4492C15.7857 31.4492 18.4492 28.7857 18.4492 25.5C18.4492 22.2143 15.7857 19.5508 12.5 19.5508C9.21434 19.5508 6.55079 22.2143 6.55079 25.5Z" fill="white"/>
<path d="M32.4219 25.8867C31.9271 25.3268 31.5625 24.6367 31.3281 23.8164C31.0938 22.9961 30.9766 22.1693 30.9766 21.3359C30.9766 20.3203 31.1133 19.4674 31.3867 18.7773C31.6732 18.0872 32.0378 17.5273 32.4805 17.0977C32.9232 16.668 33.4115 16.362 33.9453 16.1797C34.4922 15.9844 35.026 15.8867 35.5469 15.8867C36.1849 15.8867 36.7643 15.9974 37.2852 16.2188C37.819 16.4401 38.2161 16.7331 38.4766 17.0977V11.8242H40.8594V27H38.6133C38.5872 26.7786 38.5612 26.5573 38.5352 26.3359C38.5221 26.1016 38.5026 25.8867 38.4766 25.6914C38.4375 25.8607 38.3203 26.0299 38.125 26.1992C37.9427 26.3685 37.7018 26.5247 37.4023 26.668C37.1159 26.7982 36.7904 26.9023 36.4258 26.9805C36.0612 27.0586 35.6836 27.0977 35.293 27.0977C34.7721 27.0977 34.2578 27.0065 33.75 26.8242C33.2552 26.6419 32.8125 26.3294 32.4219 25.8867ZM33.4766 21.5117C33.4766 22.0326 33.5417 22.5208 33.6719 22.9766C33.8021 23.4193 33.9779 23.8099 34.1992 24.1484C34.4206 24.487 34.6875 24.7539 35 24.9492C35.3255 25.1445 35.6771 25.2422 36.0547 25.2422C36.4583 25.2422 36.8164 25.1445 37.1289 24.9492C37.4544 24.7409 37.7279 24.4674 37.9492 24.1289C38.1706 23.7904 38.3398 23.3932 38.457 22.9375C38.5742 22.4818 38.6328 21.9935 38.6328 21.4727C38.6328 20.9518 38.5677 20.4635 38.4375 20.0078C38.3203 19.5521 38.1445 19.1549 37.9102 18.8164C37.6888 18.4779 37.4154 18.2109 37.0898 18.0156C36.7773 17.8073 36.4193 17.7031 36.0156 17.7031C35.612 17.7031 35.2539 17.8073 34.9414 18.0156C34.6289 18.2109 34.362 18.4844 34.1406 18.8359C33.9323 19.1875 33.7695 19.5911 33.6523 20.0469C33.5352 20.5026 33.4766 20.9909 33.4766 21.5117ZM52.4609 23.0547C52.4609 23.5755 52.3503 24.0833 52.1289 24.5781C51.9206 25.0599 51.6211 25.4896 51.2305 25.8672C50.8398 26.2318 50.3581 26.5247 49.7852 26.7461C49.2122 26.9674 48.5612 27.0781 47.832 27.0781C47.5195 27.0781 47.194 27.0586 46.8555 27.0195C46.5299 26.9935 46.1979 26.9414 45.8594 26.8633C45.5208 26.7852 45.1953 26.681 44.8828 26.5508C44.5833 26.4076 44.3229 26.2383 44.1016 26.043L44.5117 24.3633C44.694 24.4674 44.9219 24.5716 45.1953 24.6758C45.4818 24.7669 45.7747 24.8581 46.0742 24.9492C46.3737 25.0273 46.6732 25.0924 46.9727 25.1445C47.2721 25.1966 47.5521 25.2227 47.8125 25.2227C48.6068 25.2227 49.2122 25.0404 49.6289 24.6758C50.0586 24.2982 50.2734 23.7448 50.2734 23.0156C50.2734 22.5729 50.1237 22.1953 49.8242 21.8828C49.5247 21.5703 49.1471 21.2904 48.6914 21.043C48.2487 20.7826 47.7669 20.5286 47.2461 20.2812C46.7253 20.0208 46.237 19.7214 45.7812 19.3828C45.3255 19.0312 44.9479 18.6211 44.6484 18.1523C44.349 17.6836 44.1992 17.0977 44.1992 16.3945C44.1992 15.7565 44.3164 15.1901 44.5508 14.6953C44.7852 14.2005 45.0977 13.7839 45.4883 13.4453C45.8919 13.0938 46.3542 12.8268 46.875 12.6445C47.4089 12.4622 47.9688 12.3711 48.5547 12.3711C49.1536 12.3711 49.7591 12.4297 50.3711 12.5469C50.9831 12.651 51.4779 12.8268 51.8555 13.0742C51.7773 13.2435 51.6862 13.4323 51.582 13.6406C51.4779 13.8359 51.3802 14.0247 51.2891 14.207C51.1979 14.3763 51.1198 14.5195 51.0547 14.6367C50.9896 14.7539 50.9505 14.819 50.9375 14.832C50.8594 14.793 50.7682 14.7409 50.6641 14.6758C50.5729 14.6107 50.4362 14.5456 50.2539 14.4805C50.0716 14.4154 49.8307 14.3698 49.5312 14.3438C49.2318 14.3177 48.8477 14.3242 48.3789 14.3633C48.1185 14.3893 47.8711 14.4674 47.6367 14.5977C47.4023 14.7148 47.194 14.8646 47.0117 15.0469C46.8294 15.2292 46.6862 15.4375 46.582 15.6719C46.4779 15.8932 46.4258 16.1081 46.4258 16.3164C46.4258 16.8372 46.5755 17.2604 46.875 17.5859C47.1745 17.8984 47.5456 18.1784 47.9883 18.4258C48.431 18.6602 48.9128 18.8945 49.4336 19.1289C49.9544 19.3503 50.4362 19.6237 50.8789 19.9492C51.3346 20.2747 51.7122 20.6849 52.0117 21.1797C52.3112 21.6615 52.4609 22.2865 52.4609 23.0547ZM60.9961 20.3008V22.2734H54.7852V20.3008H60.9961ZM66.6797 23.6406C66.6797 24.0833 66.7383 24.4349 66.8555 24.6953C66.9727 24.9427 67.1354 25.1315 67.3438 25.2617C67.5521 25.3789 67.7865 25.457 68.0469 25.4961C68.3203 25.5352 68.6133 25.5547 68.9258 25.5547V27C68.7565 27.026 68.5807 27.0456 68.3984 27.0586C68.2552 27.0716 68.0859 27.0781 67.8906 27.0781C67.6953 27.0911 67.5 27.0977 67.3047 27.0977C67.1094 27.0977 66.9141 27.0911 66.7188 27.0781C66.5234 27.0651 66.3477 27.0456 66.1914 27.0195C65.7487 26.9284 65.4036 26.7331 65.1562 26.4336C64.9089 26.1341 64.7201 25.8021 64.5898 25.4375C64.4596 25.0599 64.375 24.6953 64.3359 24.3438C64.3099 23.9922 64.2969 23.7188 64.2969 23.5234V23.2891V11.8242H66.6797V23.6406ZM73.7891 27H71.4062V15.9844H73.7891V27ZM74.0039 12.4688C74.0039 12.8594 73.8672 13.1914 73.5938 13.4648C73.3203 13.7253 72.9883 13.8555 72.5977 13.8555C72.207 13.8555 71.875 13.7188 71.6016 13.4453C71.3411 13.1719 71.2109 12.8464 71.2109 12.4688C71.2109 12.0781 71.3477 11.7461 71.6211 11.4727C71.8945 11.1992 72.2201 11.0625 72.5977 11.0625C72.9883 11.0625 73.3203 11.1992 73.5938 11.4727C73.8672 11.7461 74.0039 12.0781 74.0039 12.4688ZM86.2305 27H83.8477V21.0039C83.8477 20.5612 83.8281 20.138 83.7891 19.7344C83.75 19.3307 83.6589 18.9727 83.5156 18.6602C83.3724 18.3477 83.1771 18.1068 82.9297 17.9375C82.6823 17.7552 82.3372 17.6641 81.8945 17.6641C81.7513 17.6641 81.5625 17.6836 81.3281 17.7227C81.1068 17.7617 80.8724 17.8203 80.625 17.8984C80.3906 17.9766 80.1628 18.0742 79.9414 18.1914C79.7331 18.3086 79.5768 18.4453 79.4727 18.6016V18.7188V18.7578V23.0938V23.1328V27H77.1094V15.9844H79.2188L79.4727 17.0977C79.6289 16.9544 79.8242 16.8112 80.0586 16.668C80.306 16.5117 80.5729 16.375 80.8594 16.2578C81.1458 16.1406 81.4388 16.0495 81.7383 15.9844C82.0378 15.9062 82.3307 15.8672 82.6172 15.8672C83.2031 15.8672 83.6979 15.9909 84.1016 16.2383C84.5052 16.4857 84.9089 16.8047 85.3125 17.1953C85.5339 17.4167 85.7031 17.6771 85.8203 17.9766C85.9505 18.263 86.0417 18.569 86.0938 18.8945C86.1589 19.207 86.1979 19.526 86.2109 19.8516C86.224 20.1771 86.2305 20.4961 86.2305 20.8086V26.6094V27ZM95.8789 27L91.875 21.7266V27H89.4922V11.8242H91.875V21.2383L95.4102 15.9844H98.0664L94.1992 21.4727L98.5742 27H95.8789Z" fill="white"/>
</svg>
