<svg width="24" height="24" viewBox="0 0 24 24" fill="none" xmlns="http://www.w3.org/2000/svg">
<path d="M9.86333 9.67893V8.83132C9.56921 8.78954 9.27242 8.76805 8.9754 8.7666C5.34178 8.7666 2.38553 11.7233 2.38553 15.357C2.38553 17.5859 3.4995 19.559 5.19882 20.7522C4.06095 19.5354 3.42826 17.9314 3.42922 16.2654C3.42922 12.6835 6.30144 9.76248 9.86333 9.67893Z" fill="#00F2EA"/>
<path d="M10.0188 19.2744C11.6402 19.2744 12.9625 17.9847 13.0229 16.3773L13.0285 2.02907H15.6498C15.5938 1.72939 15.5655 1.42536 15.5653 1.12061H11.985L11.979 15.4694C11.9193 17.0762 10.5962 18.3655 8.9754 18.3655C8.4888 18.3657 8.00946 18.2472 7.57913 18.0199C8.143 18.8067 9.05098 19.2735 10.0188 19.2744ZM20.5461 6.89957V6.10219C19.5828 6.10315 18.6401 5.82279 17.8338 5.29587C18.5408 6.10991 19.4925 6.67257 20.5466 6.89957" fill="#00F2EA"/>
<path d="M17.8338 5.29514C17.0436 4.39102 16.6082 3.23069 16.6087 2.02979H15.6496C15.9005 3.37099 16.6899 4.55112 17.8338 5.29514ZM8.97541 12.3465C7.314 12.3484 5.96772 13.6947 5.96579 15.3561C5.96676 16.4747 6.58785 17.5005 7.57866 18.0202C7.20847 17.5097 7.00924 16.8956 7.00924 16.265C7.01093 14.6036 8.35721 13.2569 10.0189 13.2549C10.3289 13.2549 10.6262 13.3061 10.9068 13.3943V9.73917C10.6127 9.6974 10.3159 9.67591 10.0189 9.67446C9.9667 9.67446 9.91527 9.67735 9.86359 9.67832V12.4858C9.57622 12.3945 9.27678 12.3474 8.97541 12.3465Z" fill="#FF004F"/>
<path d="M20.5461 6.89965V9.68227C18.6893 9.68227 16.9697 9.08846 15.565 8.08051V15.3564C15.565 18.99 12.6093 21.9463 8.97564 21.9463C7.57141 21.9463 6.26932 21.5032 5.19907 20.7517C6.44295 22.0931 8.18961 22.8552 10.0189 22.8548C13.6525 22.8548 16.6087 19.8985 16.6087 16.2654V8.98946C18.0598 10.0329 19.8026 10.5934 21.5898 10.5912V7.01001C21.2315 7.01001 20.883 6.97113 20.5459 6.89893" fill="#FF004F"/>
<path d="M15.5648 15.3561V8.08018C17.0159 9.12387 18.7587 9.68412 20.5459 9.68194V6.89956C19.492 6.67232 18.5404 6.10942 17.8335 5.29514C16.6896 4.55112 15.9002 3.37099 15.6493 2.02979H13.0282L13.0227 16.3781C12.9625 17.9849 11.6399 19.2747 10.0186 19.2747C9.05099 19.2737 8.14276 18.8067 7.57914 18.0204C6.58833 17.501 5.96699 16.4751 5.96578 15.3563C5.96771 13.6949 7.31399 12.3487 8.9754 12.3467C9.28498 12.3467 9.58225 12.3974 9.86334 12.4861V9.67856C6.30144 9.76211 3.42923 12.6831 3.42923 16.265C3.42923 17.9972 4.10225 19.5741 5.19883 20.7518C6.30434 21.5301 7.62357 21.9472 8.9754 21.946C12.6093 21.946 15.5648 18.9897 15.5648 15.3561Z" fill="black"/>
</svg>
