<svg width="24" height="24" viewBox="0 0 24 24" fill="none" xmlns="http://www.w3.org/2000/svg">
<g clip-path="url(#clip0_47_23)">
<g clip-path="url(#clip1_47_23)">
<g filter="url(#filter0_f_47_23)">
<path d="M7.45513 18.9287L7.76068 19.1097C9.04399 19.8713 10.5154 20.2742 12.016 20.2749H12.0191C16.6273 20.2749 20.3775 16.5254 20.3794 11.917C20.3803 9.68383 19.5115 7.5838 17.933 6.0041C17.1588 5.22503 16.2378 4.60727 15.2232 4.18656C14.2086 3.76585 13.1207 3.55055 12.0224 3.55313C7.4107 3.55313 3.66029 7.30218 3.65865 11.9103C3.65638 13.4839 4.09949 15.0259 4.93677 16.3582L5.13568 16.6743L4.29094 19.7582L7.45513 18.9287ZM1.87579 22.1474L3.30293 16.9368C2.42278 15.4119 1.95973 13.682 1.96028 11.9096C1.96261 6.36516 6.47464 1.85449 12.0192 1.85449C14.7099 1.85586 17.2353 2.90293 19.1347 4.80364C21.034 6.70434 22.079 9.23077 22.0781 11.9177C22.0756 17.4618 17.5629 21.9732 12.0191 21.9732H12.0147C10.3314 21.9726 8.67733 21.5503 7.20809 20.7491L1.87579 22.1474Z" fill="#B3B3B3"/>
</g>
<path d="M1.77264 22.0424L3.19978 16.8318C2.31811 15.3032 1.855 13.5693 1.85713 11.8047C1.85946 6.26017 6.37149 1.74951 11.9161 1.74951C14.6067 1.75088 17.1322 2.79795 19.0315 4.69866C20.9309 6.59936 21.9759 9.12579 21.9749 11.8127C21.9725 17.3568 17.4598 21.8683 11.916 21.8683H11.9116C10.2283 21.8676 8.57418 21.4453 7.10494 20.6442L1.77264 22.0424Z" fill="white"/>
<path d="M11.9191 3.44875C7.30742 3.44875 3.55701 7.1978 3.55537 11.8059C3.5531 13.3795 3.99621 14.9215 4.83348 16.2538L5.0324 16.5701L4.18766 19.654L7.35199 18.8243L7.65754 19.0053C8.94085 19.7669 10.4123 20.1697 11.9128 20.1705H11.916C16.5241 20.1705 20.2745 16.421 20.2763 11.8126C20.2798 10.7142 20.0653 9.62606 19.6454 8.6111C19.2255 7.59614 18.6084 6.67456 17.8298 5.89972C17.0556 5.12064 16.1346 4.50286 15.12 4.08215C14.1054 3.66144 13.0175 3.44615 11.9191 3.44875Z" fill="url(#paint0_linear_47_23)"/>
<path fill-rule="evenodd" clip-rule="evenodd" d="M9.40194 7.60121C9.21355 7.18273 9.01532 7.17426 8.83636 7.16701L8.35459 7.16113C8.18698 7.16113 7.91465 7.22402 7.68443 7.47557C7.4542 7.72712 6.80469 8.33508 6.80469 9.57163C6.80469 10.8082 7.70534 12.003 7.83085 12.1709C7.95635 12.3388 9.56954 14.9573 12.1243 15.9647C14.2473 16.8019 14.6793 16.6354 15.1403 16.5936C15.6013 16.5517 16.6273 15.9856 16.8366 15.3987C17.0459 14.8118 17.046 14.309 16.9833 14.2038C16.9205 14.0987 16.7529 14.0362 16.5014 13.9104C16.2498 13.7847 15.0144 13.1767 14.784 13.0928C14.5536 13.0088 14.3862 12.9671 14.2184 13.2187C14.0507 13.4702 13.5696 14.0361 13.4229 14.2038C13.2762 14.3716 13.1298 14.3926 12.8782 14.267C12.6267 14.1414 11.8174 13.8759 10.8571 13.0196C10.11 12.3534 9.60564 11.5307 9.45881 11.2793C9.31198 11.0279 9.44322 10.8917 9.56927 10.7665C9.68206 10.6538 9.82055 10.473 9.94646 10.3263C10.0724 10.1796 10.1138 10.0747 10.1975 9.90726C10.2811 9.73979 10.2394 9.59269 10.1765 9.46705C10.1137 9.34141 9.62532 8.09829 9.40194 7.60121Z" fill="white"/>
</g>
</g>
<defs>
<filter id="filter0_f_47_23" x="0.910336" y="0.889035" width="22.1332" height="22.2239" filterUnits="userSpaceOnUse" color-interpolation-filters="sRGB">
<feFlood flood-opacity="0" result="BackgroundImageFix"/>
<feBlend mode="normal" in="SourceGraphic" in2="BackgroundImageFix" result="shape"/>
<feGaussianBlur stdDeviation="0.482729" result="effect1_foregroundBlur_47_23"/>
</filter>
<linearGradient id="paint0_linear_47_23" x1="11.7456" y1="4.45222" x2="11.8304" y2="18.742" gradientUnits="userSpaceOnUse">
<stop stop-color="#57D163"/>
<stop offset="1" stop-color="#23B33A"/>
</linearGradient>
<clipPath id="clip0_47_23">
<rect width="24" height="24" fill="white"/>
</clipPath>
<clipPath id="clip1_47_23">
<rect width="23.9541" height="24" fill="white"/>
</clipPath>
</defs>
</svg>
